<svg width="85" height="21" viewBox="0 0 85 21" fill="none" xmlns="http://www.w3.org/2000/svg">
<path d="M37.5 6.99513L35.4224 9.15929L37.5 6.99513ZM84.1213 9.11645C85.2929 7.94488 85.2929 6.04538 84.1213 4.87381C82.9497 3.70224 81.0503 3.70224 79.8787 4.87381L84.1213 9.11645ZM3.88028 15.8328C7.51247 12.9112 13.5549 9.11107 19.7584 7.19962C26.0361 5.26529 31.6012 5.49091 35.4224 9.15929L39.5776 4.83097C33.3988 -1.10064 25.0472 -0.708364 17.9916 1.46564C10.8618 3.66253 4.1542 7.91237 0.119724 11.1575L3.88028 15.8328ZM35.4224 9.15929C41.9774 15.4521 49.7337 19.9262 58.2396 20.4886C66.85 21.0579 75.6549 17.5829 84.1213 9.11645L79.8787 4.87381C72.3451 12.4074 65.1499 14.9324 58.6354 14.5017C52.0163 14.064 45.5226 10.5381 39.5776 4.83097L35.4224 9.15929Z" fill="white"/>
</svg>
