<svg width="199" height="142" viewBox="0 0 199 142" fill="none" xmlns="http://www.w3.org/2000/svg">
<path fill-rule="evenodd" clip-rule="evenodd" d="M20.284 26.279C19.955 26.5875 19.5962 26.8649 19.2076 27.1081C15.06 29.7033 8.87504 27.5412 4.34328 22.2863C2.59293 35.7194 5.78089 56.0987 13.8317 77.5411C26.7414 111.924 47.2662 136.021 59.6752 131.361C72.0842 126.702 71.6783 95.0521 58.7686 60.6689C50.982 39.9302 40.425 22.9341 30.5494 13.7329C30.2658 14.0416 29.9426 14.3126 29.5802 14.5394C29.1206 14.8269 28.6245 15.0267 28.1044 15.1439C29.7814 19.5382 29.0431 23.9938 26.0357 25.8755C24.3832 26.9095 22.3314 26.9876 20.284 26.279Z" fill="#923E4D"/>
<ellipse cx="152.352" cy="70.6807" rx="24" ry="66.5" transform="rotate(21.1234 152.352 70.6807)" fill="#923E4D"/>
</svg>
